<svg xmlns="http://www.w3.org/2000/svg" height="24" viewBox="0 -960 960 960" width="24"><path d="M413.463-186.769v-224.836l55.23-157.779q3.846-7.923 10.461-13.115 6.616-5.192 17.539-5.192h288.922q10.358 0 17.756 5.192t10.244 13.115l55.23 157.779v224.836q0 9.047-6.168 15.215-6.169 6.169-15.216 6.169h-17.23q-9.047 0-15.216-6.169-6.168-6.168-6.168-15.215v-42.462H473.461v42.462q0 9.047-6.168 15.215-6.169 6.169-15.216 6.169h-17.23q-9.047 0-15.216-6.169-6.168-6.168-6.168-15.215Zm64.614-264h326.154L773.154-540h-264l-31.077 89.231Zm-16.923 47.692v126.154-126.154Zm61.539 99.231q16.019 0 26.855-10.837 10.837-10.836 10.837-26.856 0-16.019-10.837-26.855-10.836-10.837-26.855-10.837-16.02 0-26.856 10.837Q485-357.558 485-341.539q0 16.02 10.837 26.856 10.836 10.837 26.856 10.837Zm236.922 0q16.02 0 26.856-10.837 10.836-10.836 10.836-26.856 0-16.019-10.836-26.855-10.836-10.837-26.856-10.837-16.019 0-26.855 10.837-10.837 10.836-10.837 26.855 0 16.02 10.837 26.856 10.836 10.837 26.855 10.837Zm-588.46 133.845v-26.153l53.847-53.847q-53.077 0-93.462-29.807Q91.155-309.615 91.155-360v-330.001q0-53.306 59.384-76.652 59.385-23.346 190.615-23.346 134.922 0 192.461 22.73 57.538 22.731 57.538 77.268v46.924h-59.998v-46.924H151.153v260.002h206.924v259.998H171.155Zm29.999-152.307q16.019 0 26.856-10.836 10.836-10.837 10.836-26.856 0-16.019-10.836-26.856-10.837-10.836-26.856-10.836-16.019 0-26.856 10.836-10.836 10.837-10.836 26.856 0 16.019 10.836 26.856 10.837 10.836 26.856 10.836Zm260 45.385h360v-126.154h-360v126.154Z"/></svg>